<mxfile host="app.diagrams.net" modified="2023-07-25T15:46:10.695Z" agent="Mozilla/5.0 (Macintosh; Intel Mac OS X 10_15_7) AppleWebKit/537.36 (KHTML, like Gecko) Chrome/114.0.0.0 Safari/537.36" etag="z4AcAHjOrxuLTjcxGmYn" version="21.6.5" type="github">
  <diagram name="Page-1" id="44cQeDNxYzvvJhUPbkjp">
    <mxGraphModel dx="2950" dy="1850" grid="1" gridSize="10" guides="1" tooltips="1" connect="1" arrows="1" fold="1" page="1" pageScale="1" pageWidth="1654" pageHeight="1169" math="0" shadow="0">
      <root>
        <mxCell id="0" />
        <mxCell id="1" parent="0" />
        <mxCell id="G0ryE29HPHUXFtw40q0b-1" value="&lt;font style=&quot;&quot;&gt;&lt;span style=&quot;font-size: 36px;&quot;&gt;Design Spotify&lt;br&gt;&lt;/span&gt;&lt;br&gt;&lt;font style=&quot;font-size: 24px;&quot;&gt;Data&amp;nbsp;&lt;br&gt;1 bn Sign Ups&lt;br&gt;100 Mn DAU&lt;br&gt;100Mn Songs&lt;br&gt;5 songs per day per User&lt;br&gt;&lt;br&gt;&lt;br&gt;&lt;br&gt;Song &lt;br&gt;Storage 5Mb&lt;br&gt;Meta Data 1000B&lt;br&gt;User Meta 10KB&lt;br&gt;&lt;/font&gt;&lt;br&gt;&lt;br&gt;&lt;font style=&quot;font-size: 24px;&quot;&gt;MATH :&lt;br&gt;&lt;br&gt;&lt;br&gt;QPS&amp;nbsp;&lt;br&gt;5*100 MN /24*60*60&amp;nbsp; (86400)&lt;br&gt;5 *10^8 / 10^5&lt;br&gt;5000 QPS&lt;br&gt;&lt;br&gt;Song&lt;br&gt;Disk Size : 5Mb * 100 Mn = 500TB&lt;br&gt;replication 3X = 1.5 PB&lt;br&gt;&lt;br&gt;User Meta&lt;br&gt;1Bn * 10KB = 10 TB&lt;br&gt;Song Meta&lt;br&gt;1000*100Mn = .1 Tb = 100 GB&lt;br&gt;Meta data ~ 10TB&lt;br&gt;&lt;br&gt;&lt;br&gt;&lt;br&gt;&lt;br&gt;&lt;br&gt;&lt;/font&gt;&lt;br&gt;&lt;br&gt;&lt;br&gt;&lt;br&gt;&lt;/font&gt;" style="text;html=1;align=left;verticalAlign=middle;resizable=0;points=[];autosize=1;strokeColor=none;fillColor=none;" vertex="1" parent="1">
          <mxGeometry x="79" y="80" width="390" height="1140" as="geometry" />
        </mxCell>
        <mxCell id="G0ryE29HPHUXFtw40q0b-56" style="edgeStyle=orthogonalEdgeStyle;rounded=0;orthogonalLoop=1;jettySize=auto;html=1;entryX=0.5;entryY=0;entryDx=0;entryDy=0;" edge="1" parent="1" source="G0ryE29HPHUXFtw40q0b-7" target="G0ryE29HPHUXFtw40q0b-13">
          <mxGeometry relative="1" as="geometry" />
        </mxCell>
        <mxCell id="G0ryE29HPHUXFtw40q0b-7" value="" style="outlineConnect=0;dashed=0;verticalLabelPosition=bottom;verticalAlign=top;align=center;html=1;shape=mxgraph.aws3.application_load_balancer;fillColor=#F58536;gradientColor=none;" vertex="1" parent="1">
          <mxGeometry x="706" y="1289" width="69" height="72" as="geometry" />
        </mxCell>
        <mxCell id="G0ryE29HPHUXFtw40q0b-28" style="edgeStyle=orthogonalEdgeStyle;rounded=0;orthogonalLoop=1;jettySize=auto;html=1;entryX=0.715;entryY=1;entryDx=0;entryDy=0;entryPerimeter=0;" edge="1" parent="1" source="G0ryE29HPHUXFtw40q0b-13" target="G0ryE29HPHUXFtw40q0b-27">
          <mxGeometry relative="1" as="geometry" />
        </mxCell>
        <mxCell id="G0ryE29HPHUXFtw40q0b-36" style="edgeStyle=orthogonalEdgeStyle;rounded=0;orthogonalLoop=1;jettySize=auto;html=1;exitX=0;exitY=0.5;exitDx=0;exitDy=0;entryX=0.5;entryY=0;entryDx=0;entryDy=0;entryPerimeter=0;" edge="1" parent="1" source="G0ryE29HPHUXFtw40q0b-13" target="G0ryE29HPHUXFtw40q0b-30">
          <mxGeometry relative="1" as="geometry" />
        </mxCell>
        <mxCell id="G0ryE29HPHUXFtw40q0b-41" style="edgeStyle=orthogonalEdgeStyle;rounded=0;orthogonalLoop=1;jettySize=auto;html=1;exitX=0;exitY=0.75;exitDx=0;exitDy=0;entryX=0.435;entryY=-0.031;entryDx=0;entryDy=0;entryPerimeter=0;" edge="1" parent="1" source="G0ryE29HPHUXFtw40q0b-13" target="G0ryE29HPHUXFtw40q0b-17">
          <mxGeometry relative="1" as="geometry" />
        </mxCell>
        <mxCell id="G0ryE29HPHUXFtw40q0b-13" value="" style="rounded=0;whiteSpace=wrap;html=1;" vertex="1" parent="1">
          <mxGeometry x="670.5" y="1431" width="140" height="170" as="geometry" />
        </mxCell>
        <mxCell id="G0ryE29HPHUXFtw40q0b-14" value="" style="sketch=0;outlineConnect=0;fontColor=#232F3E;gradientColor=none;fillColor=#232F3D;strokeColor=none;dashed=0;verticalLabelPosition=bottom;verticalAlign=top;align=center;html=1;fontSize=12;fontStyle=0;aspect=fixed;pointerEvents=1;shape=mxgraph.aws4.traditional_server;" vertex="1" parent="1">
          <mxGeometry x="680.5" y="1477" width="45" height="78" as="geometry" />
        </mxCell>
        <mxCell id="G0ryE29HPHUXFtw40q0b-15" value="" style="sketch=0;outlineConnect=0;fontColor=#232F3E;gradientColor=none;fillColor=#232F3D;strokeColor=none;dashed=0;verticalLabelPosition=bottom;verticalAlign=top;align=center;html=1;fontSize=12;fontStyle=0;aspect=fixed;pointerEvents=1;shape=mxgraph.aws4.traditional_server;" vertex="1" parent="1">
          <mxGeometry x="748.5" y="1477" width="45" height="78" as="geometry" />
        </mxCell>
        <mxCell id="G0ryE29HPHUXFtw40q0b-16" value="&lt;font style=&quot;font-size: 18px;&quot;&gt;App Server&lt;/font&gt;" style="text;html=1;align=center;verticalAlign=middle;resizable=0;points=[];autosize=1;strokeColor=none;fillColor=none;" vertex="1" parent="1">
          <mxGeometry x="680" y="1556" width="110" height="40" as="geometry" />
        </mxCell>
        <mxCell id="G0ryE29HPHUXFtw40q0b-17" value="&lt;font style=&quot;font-size: 18px;&quot;&gt;Meta Data Store DB&lt;/font&gt;" style="shape=datastore;whiteSpace=wrap;html=1;" vertex="1" parent="1">
          <mxGeometry x="486" y="1801" width="140" height="150" as="geometry" />
        </mxCell>
        <mxCell id="G0ryE29HPHUXFtw40q0b-35" style="edgeStyle=orthogonalEdgeStyle;rounded=0;orthogonalLoop=1;jettySize=auto;html=1;" edge="1" parent="1" source="G0ryE29HPHUXFtw40q0b-18" target="G0ryE29HPHUXFtw40q0b-25">
          <mxGeometry relative="1" as="geometry" />
        </mxCell>
        <mxCell id="G0ryE29HPHUXFtw40q0b-18" value="&lt;font style=&quot;&quot;&gt;&lt;span style=&quot;font-size: 18px;&quot;&gt;Song DB&lt;br&gt;&lt;/span&gt;&lt;br&gt;&lt;font style=&quot;font-size: 12px;&quot;&gt;(AWS S3/ GC STORAGE)&lt;/font&gt;&lt;br&gt;&lt;/font&gt;" style="shape=datastore;whiteSpace=wrap;html=1;" vertex="1" parent="1">
          <mxGeometry x="1170" y="2110" width="160" height="160" as="geometry" />
        </mxCell>
        <mxCell id="G0ryE29HPHUXFtw40q0b-42" style="edgeStyle=orthogonalEdgeStyle;rounded=0;orthogonalLoop=1;jettySize=auto;html=1;entryX=0;entryY=0.5;entryDx=0;entryDy=0;entryPerimeter=0;" edge="1" parent="1" source="G0ryE29HPHUXFtw40q0b-19" target="G0ryE29HPHUXFtw40q0b-7">
          <mxGeometry relative="1" as="geometry" />
        </mxCell>
        <mxCell id="G0ryE29HPHUXFtw40q0b-58" style="edgeStyle=orthogonalEdgeStyle;rounded=0;orthogonalLoop=1;jettySize=auto;html=1;entryX=0.493;entryY=0.969;entryDx=0;entryDy=0;entryPerimeter=0;" edge="1" parent="1" source="G0ryE29HPHUXFtw40q0b-19" target="G0ryE29HPHUXFtw40q0b-57">
          <mxGeometry relative="1" as="geometry" />
        </mxCell>
        <mxCell id="G0ryE29HPHUXFtw40q0b-19" value="" style="rounded=1;whiteSpace=wrap;html=1;" vertex="1" parent="1">
          <mxGeometry x="346" y="1250" width="175" height="150" as="geometry" />
        </mxCell>
        <mxCell id="G0ryE29HPHUXFtw40q0b-20" value="" style="sketch=0;outlineConnect=0;fontColor=#232F3E;gradientColor=none;fillColor=#232F3D;strokeColor=none;dashed=0;verticalLabelPosition=bottom;verticalAlign=top;align=center;html=1;fontSize=12;fontStyle=0;aspect=fixed;pointerEvents=1;shape=mxgraph.aws4.client;" vertex="1" parent="1">
          <mxGeometry x="361" y="1279" width="78" height="76" as="geometry" />
        </mxCell>
        <mxCell id="G0ryE29HPHUXFtw40q0b-21" value="Mobile client" style="sketch=0;outlineConnect=0;fontColor=#232F3E;gradientColor=none;strokeColor=#232F3E;fillColor=#ffffff;dashed=0;verticalLabelPosition=bottom;verticalAlign=top;align=center;html=1;fontSize=12;fontStyle=0;aspect=fixed;shape=mxgraph.aws4.resourceIcon;resIcon=mxgraph.aws4.mobile_client;" vertex="1" parent="1">
          <mxGeometry x="439" y="1276" width="73" height="73" as="geometry" />
        </mxCell>
        <mxCell id="G0ryE29HPHUXFtw40q0b-23" value="&lt;div style=&quot;border-color: var(--border-color);&quot;&gt;&lt;font style=&quot;font-size: 18px;&quot;&gt;SONG META&lt;/font&gt;&lt;/div&gt;&lt;ol style=&quot;border-color: var(--border-color);&quot;&gt;&lt;li style=&quot;border-color: var(--border-color);&quot;&gt;&lt;span style=&quot;border-color: var(--border-color); background-color: initial;&quot;&gt;&lt;font size=&quot;3&quot;&gt;Song Id&lt;/font&gt;&lt;/span&gt;&lt;/li&gt;&lt;li style=&quot;border-color: var(--border-color);&quot;&gt;&lt;span style=&quot;border-color: var(--border-color); background-color: initial;&quot;&gt;&lt;font size=&quot;3&quot;&gt;Song Name&amp;nbsp;&lt;/font&gt;&lt;/span&gt;&lt;/li&gt;&lt;li style=&quot;border-color: var(--border-color);&quot;&gt;&lt;span style=&quot;border-color: var(--border-color); background-color: initial;&quot;&gt;&lt;font size=&quot;3&quot;&gt;Artist Name&amp;nbsp;&lt;/font&gt;&lt;/span&gt;&lt;/li&gt;&lt;li style=&quot;border-color: var(--border-color);&quot;&gt;&lt;span style=&quot;border-color: var(--border-color); background-color: initial;&quot;&gt;&lt;font size=&quot;3&quot;&gt;Movie / Album name&lt;/font&gt;&lt;/span&gt;&lt;/li&gt;&lt;li style=&quot;border-color: var(--border-color);&quot;&gt;&lt;span style=&quot;border-color: var(--border-color); background-color: initial;&quot;&gt;&lt;font size=&quot;3&quot;&gt;lyrics&lt;/font&gt;&lt;/span&gt;&lt;/li&gt;&lt;li style=&quot;border-color: var(--border-color);&quot;&gt;&lt;font size=&quot;3&quot;&gt;Year Of release&lt;/font&gt;&lt;/li&gt;&lt;li style=&quot;border-color: var(--border-color);&quot;&gt;&lt;font size=&quot;3&quot;&gt;Song Url&amp;nbsp;&lt;/font&gt;&lt;/li&gt;&lt;/ol&gt;&lt;div style=&quot;border-color: var(--border-color);&quot;&gt;&lt;font size=&quot;3&quot;&gt;USER META&lt;/font&gt;&lt;/div&gt;&lt;div style=&quot;border-color: var(--border-color);&quot;&gt;&lt;font size=&quot;3&quot;&gt;&lt;span style=&quot;border-color: var(--border-color);&quot;&gt;&lt;span style=&quot;white-space: pre;&quot;&gt;&amp;nbsp;&amp;nbsp;&amp;nbsp;&amp;nbsp;&lt;/span&gt;&lt;/span&gt;1.userId&lt;br style=&quot;border-color: var(--border-color);&quot;&gt;&lt;/font&gt;&lt;/div&gt;&lt;div style=&quot;border-color: var(--border-color);&quot;&gt;&lt;font size=&quot;3&quot;&gt;&lt;span style=&quot;border-color: var(--border-color);&quot;&gt;&lt;span style=&quot;white-space: pre;&quot;&gt;&amp;nbsp;&amp;nbsp;&amp;nbsp;&amp;nbsp;&lt;/span&gt;&lt;/span&gt;2. user Name&lt;/font&gt;&lt;/div&gt;&lt;div style=&quot;border-color: var(--border-color);&quot;&gt;&lt;font size=&quot;3&quot;&gt;&lt;span style=&quot;border-color: var(--border-color);&quot;&gt;&lt;span style=&quot;white-space: pre;&quot;&gt;&amp;nbsp;&amp;nbsp;&amp;nbsp;&amp;nbsp;&lt;/span&gt;&lt;/span&gt;3.User Info&lt;br style=&quot;border-color: var(--border-color);&quot;&gt;&lt;/font&gt;&lt;/div&gt;&lt;div style=&quot;border-color: var(--border-color);&quot;&gt;&lt;font size=&quot;3&quot;&gt;&lt;span style=&quot;border-color: var(--border-color);&quot;&gt;&lt;span style=&quot;white-space: pre;&quot;&gt;&amp;nbsp;&amp;nbsp;&amp;nbsp;&amp;nbsp;&lt;/span&gt;&lt;/span&gt;4.Subscription&amp;nbsp; &amp;nbsp; &amp;nbsp; &amp;nbsp; &amp;nbsp; &amp;nbsp; &amp;nbsp; &amp;nbsp;&lt;span style=&quot;white-space: pre;&quot;&gt;&#x9;&lt;/span&gt;5.Type&amp;nbsp;&lt;br style=&quot;border-color: var(--border-color);&quot;&gt;&lt;/font&gt;&lt;/div&gt;&lt;div style=&quot;border-color: var(--border-color);&quot;&gt;&lt;font size=&quot;3&quot;&gt;&lt;br style=&quot;border-color: var(--border-color);&quot;&gt;&lt;/font&gt;&lt;/div&gt;&lt;div style=&quot;border-color: var(--border-color);&quot;&gt;&lt;br style=&quot;border-color: var(--border-color); color: rgb(0, 0, 0); font-family: Helvetica; font-size: 12px; font-style: normal; font-variant-ligatures: normal; font-variant-caps: normal; font-weight: 400; letter-spacing: normal; orphans: 2; text-align: left; text-indent: 0px; text-transform: none; widows: 2; word-spacing: 0px; -webkit-text-stroke-width: 0px; background-color: rgb(251, 251, 251); text-decoration-thickness: initial; text-decoration-style: initial; text-decoration-color: initial;&quot;&gt;&lt;/div&gt;" style="text;whiteSpace=wrap;html=1;" vertex="1" parent="1">
          <mxGeometry x="125" y="1704" width="227.5" height="429" as="geometry" />
        </mxCell>
        <mxCell id="G0ryE29HPHUXFtw40q0b-24" value="&lt;font style=&quot;font-size: 18px;&quot;&gt;Song MP3&amp;nbsp;&lt;/font&gt;" style="text;html=1;align=center;verticalAlign=middle;resizable=0;points=[];autosize=1;strokeColor=none;fillColor=none;" vertex="1" parent="1">
          <mxGeometry x="1060" y="2120" width="110" height="40" as="geometry" />
        </mxCell>
        <mxCell id="G0ryE29HPHUXFtw40q0b-25" value="&lt;font style=&quot;font-size: 18px;&quot;&gt;AWS S3 Glacier&amp;nbsp;&lt;/font&gt;" style="shape=datastore;whiteSpace=wrap;html=1;" vertex="1" parent="1">
          <mxGeometry x="667" y="2110" width="150" height="160" as="geometry" />
        </mxCell>
        <mxCell id="G0ryE29HPHUXFtw40q0b-26" value="" style="image;aspect=fixed;html=1;points=[];align=center;fontSize=12;image=img/lib/azure2/networking/CDN_Profiles.svg;" vertex="1" parent="1">
          <mxGeometry x="1006" y="1250" width="136" height="80" as="geometry" />
        </mxCell>
        <mxCell id="G0ryE29HPHUXFtw40q0b-27" value="&lt;font style=&quot;font-size: 18px;&quot;&gt;CDN&lt;/font&gt;" style="text;html=1;align=center;verticalAlign=middle;resizable=0;points=[];autosize=1;strokeColor=none;fillColor=none;" vertex="1" parent="1">
          <mxGeometry x="1046" y="1330" width="60" height="40" as="geometry" />
        </mxCell>
        <mxCell id="G0ryE29HPHUXFtw40q0b-30" value="" style="outlineConnect=0;dashed=0;verticalLabelPosition=bottom;verticalAlign=top;align=center;html=1;shape=mxgraph.aws3.cache_node;fillColor=#2E73B8;gradientColor=none;" vertex="1" parent="1">
          <mxGeometry x="352.5" y="1561" width="75" height="80" as="geometry" />
        </mxCell>
        <mxCell id="G0ryE29HPHUXFtw40q0b-32" value="" style="outlineConnect=0;dashed=0;verticalLabelPosition=bottom;verticalAlign=top;align=center;html=1;shape=mxgraph.aws3.cache_node;fillColor=#2E73B8;gradientColor=none;" vertex="1" parent="1">
          <mxGeometry x="362.5" y="1571" width="75" height="80" as="geometry" />
        </mxCell>
        <mxCell id="G0ryE29HPHUXFtw40q0b-33" value="&lt;font style=&quot;font-size: 18px;&quot;&gt;Meta Data Cache&lt;/font&gt;" style="outlineConnect=0;dashed=0;verticalLabelPosition=bottom;verticalAlign=top;align=center;html=1;shape=mxgraph.aws3.cache_node;fillColor=#2E73B8;gradientColor=none;" vertex="1" parent="1">
          <mxGeometry x="372.5" y="1581" width="75" height="80" as="geometry" />
        </mxCell>
        <mxCell id="G0ryE29HPHUXFtw40q0b-44" value="" style="rounded=0;whiteSpace=wrap;html=1;" vertex="1" parent="1">
          <mxGeometry x="680.5" y="1441" width="140" height="170" as="geometry" />
        </mxCell>
        <mxCell id="G0ryE29HPHUXFtw40q0b-45" value="" style="sketch=0;outlineConnect=0;fontColor=#232F3E;gradientColor=none;fillColor=#232F3D;strokeColor=none;dashed=0;verticalLabelPosition=bottom;verticalAlign=top;align=center;html=1;fontSize=12;fontStyle=0;aspect=fixed;pointerEvents=1;shape=mxgraph.aws4.traditional_server;" vertex="1" parent="1">
          <mxGeometry x="690.5" y="1487" width="45" height="78" as="geometry" />
        </mxCell>
        <mxCell id="G0ryE29HPHUXFtw40q0b-46" value="" style="sketch=0;outlineConnect=0;fontColor=#232F3E;gradientColor=none;fillColor=#232F3D;strokeColor=none;dashed=0;verticalLabelPosition=bottom;verticalAlign=top;align=center;html=1;fontSize=12;fontStyle=0;aspect=fixed;pointerEvents=1;shape=mxgraph.aws4.traditional_server;" vertex="1" parent="1">
          <mxGeometry x="780" y="1487" width="23.5" height="40.73" as="geometry" />
        </mxCell>
        <mxCell id="G0ryE29HPHUXFtw40q0b-47" value="&lt;font style=&quot;font-size: 18px;&quot;&gt;App Server&lt;/font&gt;" style="text;html=1;align=center;verticalAlign=middle;resizable=0;points=[];autosize=1;strokeColor=none;fillColor=none;" vertex="1" parent="1">
          <mxGeometry x="690" y="1566" width="110" height="40" as="geometry" />
        </mxCell>
        <mxCell id="G0ryE29HPHUXFtw40q0b-83" style="edgeStyle=orthogonalEdgeStyle;rounded=0;orthogonalLoop=1;jettySize=auto;html=1;entryX=0.5;entryY=0;entryDx=0;entryDy=0;" edge="1" parent="1" source="G0ryE29HPHUXFtw40q0b-48" target="G0ryE29HPHUXFtw40q0b-76">
          <mxGeometry relative="1" as="geometry" />
        </mxCell>
        <mxCell id="G0ryE29HPHUXFtw40q0b-48" value="" style="rounded=0;whiteSpace=wrap;html=1;" vertex="1" parent="1">
          <mxGeometry x="690.5" y="1451" width="140" height="170" as="geometry" />
        </mxCell>
        <mxCell id="G0ryE29HPHUXFtw40q0b-49" value="" style="sketch=0;outlineConnect=0;fontColor=#232F3E;gradientColor=none;fillColor=#232F3D;strokeColor=none;dashed=0;verticalLabelPosition=bottom;verticalAlign=top;align=center;html=1;fontSize=12;fontStyle=0;aspect=fixed;pointerEvents=1;shape=mxgraph.aws4.traditional_server;" vertex="1" parent="1">
          <mxGeometry x="700.5" y="1497" width="45" height="78" as="geometry" />
        </mxCell>
        <mxCell id="G0ryE29HPHUXFtw40q0b-50" value="" style="sketch=0;outlineConnect=0;fontColor=#232F3E;gradientColor=none;fillColor=#232F3D;strokeColor=none;dashed=0;verticalLabelPosition=bottom;verticalAlign=top;align=center;html=1;fontSize=12;fontStyle=0;aspect=fixed;pointerEvents=1;shape=mxgraph.aws4.traditional_server;" vertex="1" parent="1">
          <mxGeometry x="768.69" y="1497" width="47.31" height="82" as="geometry" />
        </mxCell>
        <mxCell id="G0ryE29HPHUXFtw40q0b-51" value="&lt;font style=&quot;font-size: 18px;&quot;&gt;Web/App Server&lt;/font&gt;" style="text;html=1;align=center;verticalAlign=middle;resizable=0;points=[];autosize=1;strokeColor=none;fillColor=none;" vertex="1" parent="1">
          <mxGeometry x="841" y="1566" width="160" height="40" as="geometry" />
        </mxCell>
        <mxCell id="G0ryE29HPHUXFtw40q0b-57" value="" style="image;sketch=0;aspect=fixed;html=1;points=[];align=center;fontSize=12;image=img/lib/mscae/DNS.svg;" vertex="1" parent="1">
          <mxGeometry x="40" y="1276" width="50" height="50" as="geometry" />
        </mxCell>
        <mxCell id="G0ryE29HPHUXFtw40q0b-61" value="DNS" style="text;html=1;align=center;verticalAlign=middle;resizable=0;points=[];autosize=1;strokeColor=none;fillColor=none;" vertex="1" parent="1">
          <mxGeometry x="40" y="1340" width="50" height="30" as="geometry" />
        </mxCell>
        <mxCell id="G0ryE29HPHUXFtw40q0b-62" value="CLIENT" style="text;html=1;align=center;verticalAlign=middle;resizable=0;points=[];autosize=1;strokeColor=none;fillColor=none;" vertex="1" parent="1">
          <mxGeometry x="395" y="1409" width="70" height="30" as="geometry" />
        </mxCell>
        <mxCell id="G0ryE29HPHUXFtw40q0b-63" value="&lt;font style=&quot;font-size: 18px;&quot;&gt;LOAD BALANCER&lt;/font&gt;" style="text;html=1;align=center;verticalAlign=middle;resizable=0;points=[];autosize=1;strokeColor=none;fillColor=none;" vertex="1" parent="1">
          <mxGeometry x="660" y="1239" width="170" height="40" as="geometry" />
        </mxCell>
        <mxCell id="G0ryE29HPHUXFtw40q0b-64" value="&lt;font style=&quot;font-size: 18px;&quot;&gt;Song MP3&amp;nbsp;&lt;/font&gt;" style="text;html=1;align=center;verticalAlign=middle;resizable=0;points=[];autosize=1;strokeColor=none;fillColor=none;" vertex="1" parent="1">
          <mxGeometry x="553" y="2130" width="110" height="40" as="geometry" />
        </mxCell>
        <mxCell id="G0ryE29HPHUXFtw40q0b-65" value="&lt;font style=&quot;font-size: 18px;&quot;&gt;Meta Data Store DB&lt;/font&gt;" style="shape=datastore;whiteSpace=wrap;html=1;" vertex="1" parent="1">
          <mxGeometry x="496" y="1811" width="140" height="150" as="geometry" />
        </mxCell>
        <mxCell id="G0ryE29HPHUXFtw40q0b-66" value="&lt;font style=&quot;font-size: 18px;&quot;&gt;Meta Data Store DB&lt;/font&gt;" style="shape=datastore;whiteSpace=wrap;html=1;" vertex="1" parent="1">
          <mxGeometry x="506" y="1821" width="140" height="150" as="geometry" />
        </mxCell>
        <mxCell id="G0ryE29HPHUXFtw40q0b-68" value="&lt;font style=&quot;&quot;&gt;&lt;span style=&quot;font-size: 18px;&quot;&gt;Song DB&lt;br&gt;&lt;/span&gt;&lt;br&gt;&lt;font style=&quot;font-size: 12px;&quot;&gt;(AWS S3/ GC STORAGE)&lt;/font&gt;&lt;br&gt;&lt;/font&gt;" style="shape=datastore;whiteSpace=wrap;html=1;" vertex="1" parent="1">
          <mxGeometry x="1180" y="2120" width="160" height="160" as="geometry" />
        </mxCell>
        <mxCell id="G0ryE29HPHUXFtw40q0b-69" value="&lt;font style=&quot;&quot;&gt;&lt;span style=&quot;font-size: 18px;&quot;&gt;Song DB&lt;br&gt;&lt;/span&gt;&lt;br&gt;&lt;font style=&quot;font-size: 12px;&quot;&gt;(AWS S3/ GC STORAGE)&lt;/font&gt;&lt;br&gt;&lt;/font&gt;" style="shape=datastore;whiteSpace=wrap;html=1;" vertex="1" parent="1">
          <mxGeometry x="1195" y="2130" width="160" height="160" as="geometry" />
        </mxCell>
        <mxCell id="G0ryE29HPHUXFtw40q0b-70" value="&lt;font style=&quot;font-size: 18px;&quot;&gt;AWS S3 Glacier&amp;nbsp;&lt;/font&gt;" style="shape=datastore;whiteSpace=wrap;html=1;" vertex="1" parent="1">
          <mxGeometry x="677" y="2120" width="150" height="160" as="geometry" />
        </mxCell>
        <mxCell id="G0ryE29HPHUXFtw40q0b-71" value="&lt;font style=&quot;font-size: 18px;&quot;&gt;AWS S3 Glacier&amp;nbsp;&lt;/font&gt;" style="shape=datastore;whiteSpace=wrap;html=1;" vertex="1" parent="1">
          <mxGeometry x="687" y="2130" width="150" height="160" as="geometry" />
        </mxCell>
        <mxCell id="G0ryE29HPHUXFtw40q0b-72" value="&lt;span style=&quot;color: rgb(0, 0, 0); font-family: Helvetica; font-style: normal; font-variant-ligatures: normal; font-variant-caps: normal; font-weight: 400; letter-spacing: normal; orphans: 2; text-align: left; text-indent: 0px; text-transform: none; widows: 2; word-spacing: 0px; -webkit-text-stroke-width: 0px; background-color: rgb(251, 251, 251); text-decoration-thickness: initial; text-decoration-style: initial; text-decoration-color: initial; float: none; display: inline !important;&quot;&gt;&lt;font style=&quot;font-size: 72px;&quot;&gt;Design Spotify&lt;/font&gt;&lt;/span&gt;" style="text;whiteSpace=wrap;html=1;" vertex="1" parent="1">
          <mxGeometry x="1160" y="1208" width="480" height="132" as="geometry" />
        </mxCell>
        <mxCell id="G0ryE29HPHUXFtw40q0b-74" value="spotify.com" style="text;html=1;align=center;verticalAlign=middle;resizable=0;points=[];autosize=1;strokeColor=none;fillColor=none;" vertex="1" parent="1">
          <mxGeometry x="180" y="1288" width="80" height="30" as="geometry" />
        </mxCell>
        <mxCell id="G0ryE29HPHUXFtw40q0b-75" value="192.10.203.121" style="text;html=1;align=center;verticalAlign=middle;resizable=0;points=[];autosize=1;strokeColor=none;fillColor=none;" vertex="1" parent="1">
          <mxGeometry x="160" y="1331" width="110" height="30" as="geometry" />
        </mxCell>
        <mxCell id="G0ryE29HPHUXFtw40q0b-91" style="edgeStyle=orthogonalEdgeStyle;rounded=0;orthogonalLoop=1;jettySize=auto;html=1;entryX=0;entryY=0.5;entryDx=0;entryDy=0;entryPerimeter=0;" edge="1" parent="1" source="G0ryE29HPHUXFtw40q0b-76" target="G0ryE29HPHUXFtw40q0b-82">
          <mxGeometry relative="1" as="geometry" />
        </mxCell>
        <mxCell id="G0ryE29HPHUXFtw40q0b-76" value="" style="image;aspect=fixed;perimeter=ellipsePerimeter;html=1;align=center;shadow=0;dashed=0;spacingTop=3;image=img/lib/active_directory/server_farm.svg;" vertex="1" parent="1">
          <mxGeometry x="711" y="1754" width="126" height="126" as="geometry" />
        </mxCell>
        <mxCell id="G0ryE29HPHUXFtw40q0b-93" style="edgeStyle=orthogonalEdgeStyle;rounded=0;orthogonalLoop=1;jettySize=auto;html=1;entryX=0;entryY=0.5;entryDx=0;entryDy=0;entryPerimeter=0;" edge="1" parent="1" source="G0ryE29HPHUXFtw40q0b-77" target="G0ryE29HPHUXFtw40q0b-79">
          <mxGeometry relative="1" as="geometry" />
        </mxCell>
        <mxCell id="G0ryE29HPHUXFtw40q0b-77" value="" style="image;sketch=0;aspect=fixed;html=1;points=[];align=center;fontSize=12;image=img/lib/mscae/Media_Encoding.svg;" vertex="1" parent="1">
          <mxGeometry x="1128.3400000000001" y="1811" width="50" height="58.14" as="geometry" />
        </mxCell>
        <mxCell id="G0ryE29HPHUXFtw40q0b-94" style="edgeStyle=orthogonalEdgeStyle;rounded=0;orthogonalLoop=1;jettySize=auto;html=1;entryX=0.5;entryY=0;entryDx=0;entryDy=0;entryPerimeter=0;" edge="1" parent="1" source="G0ryE29HPHUXFtw40q0b-79" target="G0ryE29HPHUXFtw40q0b-80">
          <mxGeometry relative="1" as="geometry" />
        </mxCell>
        <mxCell id="G0ryE29HPHUXFtw40q0b-79" value="" style="outlineConnect=0;dashed=0;verticalLabelPosition=bottom;verticalAlign=top;align=center;html=1;shape=mxgraph.aws3.elastic_transcoder;fillColor=#D9A741;gradientColor=none;" vertex="1" parent="1">
          <mxGeometry x="1218" y="1821" width="82" height="80" as="geometry" />
        </mxCell>
        <mxCell id="G0ryE29HPHUXFtw40q0b-95" style="edgeStyle=orthogonalEdgeStyle;rounded=0;orthogonalLoop=1;jettySize=auto;html=1;entryX=0.562;entryY=-0.015;entryDx=0;entryDy=0;entryPerimeter=0;" edge="1" parent="1" source="G0ryE29HPHUXFtw40q0b-80" target="G0ryE29HPHUXFtw40q0b-18">
          <mxGeometry relative="1" as="geometry" />
        </mxCell>
        <mxCell id="G0ryE29HPHUXFtw40q0b-80" value="" style="outlineConnect=0;dashed=0;verticalLabelPosition=bottom;verticalAlign=top;align=center;html=1;shape=mxgraph.aws3.data_encryption_key;fillColor=#7D7C7C;gradientColor=none;" vertex="1" parent="1">
          <mxGeometry x="1224" y="1958" width="70" height="75" as="geometry" />
        </mxCell>
        <mxCell id="G0ryE29HPHUXFtw40q0b-92" style="edgeStyle=orthogonalEdgeStyle;rounded=0;orthogonalLoop=1;jettySize=auto;html=1;" edge="1" parent="1" source="G0ryE29HPHUXFtw40q0b-82" target="G0ryE29HPHUXFtw40q0b-77">
          <mxGeometry relative="1" as="geometry" />
        </mxCell>
        <mxCell id="G0ryE29HPHUXFtw40q0b-82" value="" style="sketch=0;aspect=fixed;pointerEvents=1;shadow=0;dashed=0;html=1;strokeColor=none;labelPosition=center;verticalLabelPosition=bottom;verticalAlign=top;align=center;fillColor=#00188D;shape=mxgraph.azure.queue_generic" vertex="1" parent="1">
          <mxGeometry x="1070" y="1704" width="166.67" height="50" as="geometry" />
        </mxCell>
        <mxCell id="G0ryE29HPHUXFtw40q0b-89" value="" style="sketch=0;points=[[0.015,0.015,0],[0.985,0.015,0],[0.985,0.985,0],[0.015,0.985,0],[0.25,0,0],[0.5,0,0],[0.75,0,0],[1,0.25,0],[1,0.5,0],[1,0.75,0],[0.75,1,0],[0.5,1,0],[0.25,1,0],[0,0.75,0],[0,0.5,0],[0,0.25,0]];verticalLabelPosition=bottom;html=1;verticalAlign=top;aspect=fixed;align=center;pointerEvents=1;shape=mxgraph.cisco19.rect;prIcon=h323;fillColor=#FAFAFA;strokeColor=#005073;" vertex="1" parent="1">
          <mxGeometry x="1195" y="2197.5" width="32" height="25" as="geometry" />
        </mxCell>
        <mxCell id="G0ryE29HPHUXFtw40q0b-90" value="WATCHER&lt;br&gt;CHUNKER &lt;br&gt;INDEXER&lt;br&gt;INTERNAL DB&amp;nbsp;" style="rounded=0;whiteSpace=wrap;html=1;" vertex="1" parent="1">
          <mxGeometry x="892" y="1710" width="140" height="129" as="geometry" />
        </mxCell>
        <mxCell id="G0ryE29HPHUXFtw40q0b-99" value="&lt;font style=&quot;font-size: 14px;&quot;&gt;Block Server&lt;/font&gt;" style="text;html=1;align=center;verticalAlign=middle;resizable=0;points=[];autosize=1;strokeColor=none;fillColor=none;" vertex="1" parent="1">
          <mxGeometry x="700" y="1908" width="100" height="30" as="geometry" />
        </mxCell>
        <mxCell id="G0ryE29HPHUXFtw40q0b-102" value="&lt;font style=&quot;font-size: 18px;&quot;&gt;AWS S3 Glacier&amp;nbsp;&lt;/font&gt;" style="shape=datastore;whiteSpace=wrap;html=1;" vertex="1" parent="1">
          <mxGeometry x="861" y="2050" width="150" height="160" as="geometry" />
        </mxCell>
      </root>
    </mxGraphModel>
  </diagram>
</mxfile>
